<?xml version="1.0" encoding="UTF-8" standalone="no"?>
<!-- Created with Inkscape (http://www.inkscape.org/) -->

<svg
   xmlns:dc="http://purl.org/dc/elements/1.1/"
   xmlns:cc="http://creativecommons.org/ns#"
   xmlns:rdf="http://www.w3.org/1999/02/22-rdf-syntax-ns#"
   xmlns:svg="http://www.w3.org/2000/svg"
   xmlns="http://www.w3.org/2000/svg"
   xmlns:sodipodi="http://sodipodi.sourceforge.net/DTD/sodipodi-0.dtd"
   xmlns:inkscape="http://www.inkscape.org/namespaces/inkscape"
   version="1.0"
   width="58mm"
   height="22mm"
   id="svg2423"
   sodipodi:docname="MSX2 print.svg"
   inkscape:version="0.92.1 r15371">
  <metadata
     id="metadata11">
    <rdf:RDF>
      <cc:Work
         rdf:about="">
        <dc:format>image/svg+xml</dc:format>
        <dc:type
           rdf:resource="http://purl.org/dc/dcmitype/StillImage" />
        <dc:title></dc:title>
      </cc:Work>
    </rdf:RDF>
  </metadata>
  <sodipodi:namedview
     pagecolor="#ffffff"
     bordercolor="#666666"
     borderopacity="1"
     objecttolerance="10"
     gridtolerance="10"
     guidetolerance="10"
     inkscape:pageopacity="0"
     inkscape:pageshadow="2"
     inkscape:window-width="1680"
     inkscape:window-height="989"
     id="namedview9"
     showgrid="false"
     inkscape:zoom="2.7998787"
     inkscape:cx="129.07487"
     inkscape:cy="25.974829"
     inkscape:window-x="0"
     inkscape:window-y="0"
     inkscape:window-maximized="1"
     inkscape:current-layer="svg2423" />
  <defs
     id="defs2425" />
  <path
     style="font-style:normal;font-variant:normal;font-weight:normal;font-stretch:normal;letter-spacing:normal;word-spacing:normal;text-anchor:start;fill:#000000;fill-opacity:1;fill-rule:nonzero;stroke:#000000;stroke-width:0;stroke-linecap:butt;stroke-linejoin:miter;stroke-miterlimit:10.43299961;stroke-dasharray:none;stroke-dashoffset:0;stroke-opacity:1"
     d="M 3.6347656 4.9628906 L 3.6347656 70.972656 L 165.68945 70.972656 L 166.63281 70.972656 L 195.57617 70.972656 L 195.57617 59.396484 C 194.57618 59.606358 193.56327 59.712891 192.55078 59.712891 L 179.46289 59.712891 C 180.81289 57.823903 182.92619 55.973113 185.82617 54.171875 C 189.17615 52.081888 191.57579 50.123504 192.98828 48.322266 L 193.375 47.820312 L 193.72656 47.304688 L 194.0625 46.775391 L 194.375 46.234375 L 194.65039 45.679688 L 194.91406 45.111328 L 195.15039 44.529297 L 195.35156 43.935547 L 195.53906 43.326172 L 195.70117 42.705078 L 195.83789 42.068359 L 195.95117 41.421875 L 196.02539 40.757812 L 196.08789 40.083984 L 196.125 39.394531 L 196.13867 38.693359 C 196.13867 34.162138 194.61326 30.578031 191.55078 27.935547 C 188.6508 25.465563 185.12653 24.220703 180.97656 24.220703 C 175.77659 24.220703 171.78787 26.21815 169.02539 30.203125 C 167.96479 31.76302 167.1687 33.447302 166.63281 35.255859 L 166.63281 4.9628906 L 3.6347656 4.9628906 z M 138.4082 14.25 L 153.73438 14.255859 L 138.23438 36.886719 L 155.08398 61.613281 L 139.52148 61.613281 L 130.27148 48.376953 L 120.92773 61.642578 L 105.46484 61.642578 C 105.88484 60.773333 122.39453 36.886719 122.39453 36.886719 L 115.35742 27.101562 L 85.513672 27.130859 C 84.122431 27.243358 82.418199 26.818135 81.720703 28.390625 C 81.475705 28.908121 81.368986 29.680628 81.646484 30.203125 C 81.890232 30.793121 82.44727 31.350236 83.072266 31.521484 L 84.015625 31.59375 L 95.957031 31.59375 C 101.49449 31.729999 106.61814 35.176985 109.01562 40.158203 C 111.14437 44.336926 110.83076 50.05151 108.45703 54.021484 C 105.46455 59.064827 100.13754 61.886765 94.361328 61.681641 L 61.138672 61.681641 C 61.138672 61.681641 56.050625 43.327969 56.015625 43.292969 L 50.894531 61.681641 L 38.78125 61.685547 L 33.908203 43.224609 L 28.576172 61.642578 L 15.171875 61.642578 C 15.171875 61.642578 27.49688 17.283498 28.296875 14.353516 L 39.615234 14.353516 L 44.943359 34.136719 L 50.376953 14.353516 L 61.484375 14.353516 L 70.992188 48.800781 L 93.140625 48.800781 C 94.669365 48.727031 96.796879 49.142566 97.421875 47.267578 C 97.666873 46.422583 97.458434 45.553044 96.867188 44.966797 C 96.310941 44.474301 95.611401 44.341797 94.878906 44.341797 L 82.970703 44.337891 C 77.330739 44.162893 71.724752 40.47184 69.634766 35.046875 C 67.36853 29.61191 68.692918 23.097395 72.837891 18.888672 C 75.762872 15.953691 79.244792 14.494217 83.322266 14.324219 L 122.39453 14.283203 L 130.27148 25.636719 L 138.4082 14.25 z M 180.85156 34.669922 C 183.02654 34.669922 184.125 36.115487 184.125 39.011719 C 184.125 40.856707 183.02654 42.702981 180.85156 44.542969 C 177.78908 47.062953 175.48827 48.952899 173.92578 50.212891 C 170.28789 53.30054 167.86083 57.388123 166.63281 62.464844 L 166.63281 41.150391 L 177.76367 41.150391 C 177.63867 40.559145 177.58789 39.929371 177.58789 39.265625 C 177.58789 36.199395 178.67657 34.669922 180.85156 34.669922 z "
     id="path2410" />
</svg>
